name Walk1.mot
datacolumns 19
datarows 17
range 2.00300000 2.01900000
endheader

                time	   L_ground_force_vx	   L_ground_force_vy	   L_ground_force_vz	   L_ground_force_px	   L_ground_force_py	   L_ground_force_pz	   R_ground_force_vx	   R_ground_force_vy	   R_ground_force_vz	   R_ground_force_px	   R_ground_force_py	   R_ground_force_pz	   L_ground_torque_x	   L_ground_torque_y	   L_ground_torque_z	   R_ground_torque_x	   R_ground_torque_y	   R_ground_torque_z	
          2.00300000	          0.03417906	          0.10159029	         -0.00083897	         -0.00012887	          0.00000000	         -0.00005067	        -35.80670753	        543.52916966	        -31.05161020	          0.38776551	          0.00000000	          0.09550661	          0.00000000	         -0.00009366	          0.00000000	          0.00000000	         -0.03663578	          0.00000000	
          2.00400000	          0.03183096	          0.09439738	         -0.00080814	         -0.00012562	          0.00000000	         -0.00004957	        -35.51385943	        542.78477995	        -31.17908445	          0.38824746	          0.00000000	          0.09543559	          0.00000000	         -0.00008721	          0.00000000	          0.00000000	         -0.03462690	          0.00000000	
          2.00500000	          0.02956221	          0.08745934	         -0.00077688	         -0.00012216	          0.00000000	         -0.00004838	        -35.22013837	        542.03901573	        -31.31346581	          0.38873219	          0.00000000	          0.09536488	          0.00000000	         -0.00008097	          0.00000000	          0.00000000	         -0.03202513	          0.00000000	
          2.00600000	          0.02737466	          0.08078071	         -0.00074534	         -0.00011855	          0.00000000	         -0.00004711	        -34.92529442	        541.29305718	        -31.45450754	          0.38921956	          0.00000000	          0.09529445	          0.00000000	         -0.00007496	          0.00000000	          0.00000000	         -0.02880403	          0.00000000	
          2.00700000	          0.02526966	          0.07436467	         -0.00071367	         -0.00011479	          0.00000000	         -0.00004576	        -34.62908817	        540.54812424	        -31.60195039	          0.38970944	          0.00000000	          0.09522429	          0.00000000	         -0.00006917	          0.00000000	          0.00000000	         -0.02493934	          0.00000000	
          2.00800000	          0.02324814	          0.06821315	         -0.00068199	         -0.00011091	          0.00000000	         -0.00004436	        -34.33129092	        539.80546974	        -31.75552332	          0.39020169	          0.00000000	          0.09515439	          0.00000000	         -0.00006362	          0.00000000	          0.00000000	         -0.02040875	          0.00000000	
          2.00900000	          0.02131066	          0.06232689	         -0.00065043	         -0.00010695	          0.00000000	         -0.00004291	        -34.03168465	        539.06637312	        -31.91494447	          0.39069616	          0.00000000	          0.09508471	          0.00000000	         -0.00005829	          0.00000000	          0.00000000	         -0.01519152	          0.00000000	
          2.01000000	          0.01945738	          0.05670559	         -0.00061909	         -0.00010292	          0.00000000	         -0.00004142	        -33.73006196	        538.33213513	        -32.07992230	          0.39119270	          0.00000000	          0.09501524	          0.00000000	         -0.00005320	          0.00000000	          0.00000000	         -0.00926806	          0.00000000	
          2.01100000	          0.01768814	          0.05134795	         -0.00058808	         -0.00009884	          0.00000000	         -0.00003990	        -33.42622618	        537.60407323	        -32.25015657	          0.39169115	          0.00000000	          0.09494595	          0.00000000	         -0.00004834	          0.00000000	          0.00000000	         -0.00261955	          0.00000000	
          2.01200000	          0.01600250	          0.04625182	         -0.00055749	         -0.00009474	          0.00000000	         -0.00003836	        -33.11999173	        536.88351766	        -32.42533926	          0.39219135	          0.00000000	          0.09487682	          0.00000000	         -0.00004371	          0.00000000	          0.00000000	          0.00477224	          0.00000000	
          2.01300000	          0.01439971	          0.04141420	         -0.00052738	         -0.00009063	          0.00000000	         -0.00003681	        -32.81118444	        536.17180748	        -32.60515536	          0.39269312	          0.00000000	          0.09480780	          0.00000000	         -0.00003931	          0.00000000	          0.00000000	          0.01292505	          0.00000000	
          2.01400000	          0.01287878	          0.03683140	         -0.00049785	         -0.00008652	          0.00000000	         -0.00003525	        -32.49964200	        535.47028652	        -32.78928348	          0.39319632	          0.00000000	          0.09473888	          0.00000000	         -0.00003514	          0.00000000	          0.00000000	          0.02185604	          0.00000000	
          2.01500000	          0.01143850	          0.03249908	         -0.00046894	         -0.00008244	          0.00000000	         -0.00003369	        -32.18521436	        534.78029899	        -32.97739640	          0.39370080	          0.00000000	          0.09467002	          0.00000000	         -0.00003119	          0.00000000	          0.00000000	          0.03158170	          0.00000000	
          2.01600000	          0.01007745	          0.02841229	         -0.00044072	         -0.00007839	          0.00000000	         -0.00003213	        -31.86776405	        534.10318492	        -33.16916121	          0.39420641	          0.00000000	          0.09460119	          0.00000000	         -0.00002745	          0.00000000	          0.00000000	          0.04211786	          0.00000000	
          2.01700000	          0.00879405	          0.02456563	         -0.00041324	         -0.00007439	          0.00000000	         -0.00003058	        -31.54716653	        533.44027535	        -33.36423925	          0.39471303	          0.00000000	          0.09453237	          0.00000000	         -0.00002393	          0.00000000	          0.00000000	          0.05347978	          0.00000000	
          2.01800000	          0.00758653	          0.02095319	         -0.00038653	         -0.00007045	          0.00000000	         -0.00002905	        -31.22331064	        532.79288758	        -33.56228570	          0.39522056	          0.00000000	          0.09446352	          0.00000000	         -0.00002062	          0.00000000	          0.00000000	          0.06568220	          0.00000000	
          2.01900000	          0.00645302	          0.01756872	         -0.00036063	         -0.00006658	          0.00000000	         -0.00002754	        -30.89609922	        532.16232070	        -33.76294913	          0.39572890	          0.00000000	          0.09439461	          0.00000000	         -0.00001751	          0.00000000	          0.00000000	          0.07873935	          0.00000000	
